<svg width="26" height="26" viewBox="0 0 26 26" fill="none" xmlns="http://www.w3.org/2000/svg">
<g clip-path="url(#clip0_160_510)">
<path d="M9.21326 19.5704C9.21326 19.668 9.10095 19.7461 8.95935 19.7461C8.79822 19.7608 8.68591 19.6827 8.68591 19.5704C8.68591 19.4727 8.79822 19.3946 8.93982 19.3946C9.0863 19.3799 9.21326 19.4581 9.21326 19.5704ZM7.6947 19.3506C7.66052 19.4483 7.75818 19.5606 7.90466 19.5899C8.03162 19.6387 8.1781 19.5899 8.2074 19.4922C8.23669 19.3946 8.14392 19.2823 7.99744 19.2383C7.87048 19.2041 7.72888 19.253 7.6947 19.3506ZM9.85291 19.2676C9.7113 19.3018 9.61365 19.3946 9.6283 19.5069C9.64294 19.6045 9.7699 19.668 9.91638 19.6338C10.058 19.5997 10.1556 19.5069 10.141 19.4092C10.1263 19.3165 9.99451 19.253 9.85291 19.2676ZM13.0658 0.556686C6.29334 0.556686 1.11267 5.69829 1.11267 12.4707C1.11267 17.8858 4.52087 22.5196 9.38904 24.1504C10.014 24.2627 10.2338 23.877 10.2338 23.5596C10.2338 23.2569 10.2191 21.587 10.2191 20.5616C10.2191 20.5616 6.80115 21.294 6.08337 19.1065C6.08337 19.1065 5.52673 17.6856 4.72595 17.3194C4.72595 17.3194 3.60779 16.5528 4.80408 16.5674C4.80408 16.5674 6.0199 16.6651 6.68884 17.8272C7.75818 19.712 9.55017 19.17 10.2484 18.8477C10.3607 18.0665 10.6781 17.5245 11.0297 17.2022C8.30017 16.8995 5.54626 16.504 5.54626 11.8067C5.54626 10.4639 5.91736 9.79008 6.69861 8.93071C6.57166 8.61333 6.15662 7.30473 6.82556 5.61528C7.84607 5.2979 10.1947 6.93364 10.1947 6.93364C11.1713 6.6602 12.2211 6.5186 13.2611 6.5186C14.3011 6.5186 15.351 6.6602 16.3275 6.93364C16.3275 6.93364 18.6761 5.29301 19.6967 5.61528C20.3656 7.30962 19.9506 8.61333 19.8236 8.93071C20.6049 9.79497 21.0834 10.4688 21.0834 11.8067C21.0834 16.5186 18.2074 16.8946 15.4779 17.2022C15.9271 17.5879 16.308 18.3204 16.308 19.4678C16.308 21.1133 16.2933 23.1495 16.2933 23.5499C16.2933 23.8672 16.5179 24.253 17.1381 24.1407C22.0209 22.5196 25.3314 17.8858 25.3314 12.4707C25.3314 5.69829 19.8383 0.556686 13.0658 0.556686ZM5.85876 17.3975C5.79529 17.4463 5.80994 17.5586 5.89294 17.6514C5.97107 17.7295 6.08337 17.7637 6.14685 17.7002C6.21033 17.6514 6.19568 17.5391 6.11267 17.4463C6.03455 17.3682 5.92224 17.334 5.85876 17.3975ZM5.33142 17.002C5.29724 17.0655 5.34607 17.1436 5.44373 17.1924C5.52185 17.2413 5.61951 17.2266 5.65369 17.1582C5.68787 17.0948 5.63904 17.0166 5.54138 16.9678C5.44373 16.9385 5.3656 16.9532 5.33142 17.002ZM6.91345 18.7403C6.83533 18.8038 6.86462 18.9502 6.97693 19.043C7.08923 19.1553 7.23083 19.17 7.29431 19.0918C7.35779 19.0284 7.32849 18.8819 7.23084 18.7891C7.12341 18.6768 6.97693 18.6622 6.91345 18.7403ZM6.35681 18.0225C6.27869 18.0713 6.27869 18.1983 6.35681 18.3106C6.43494 18.4229 6.56677 18.4717 6.63025 18.4229C6.70837 18.3594 6.70837 18.2325 6.63025 18.1202C6.56189 18.0079 6.43494 17.959 6.35681 18.0225Z" fill="white"/>
</g>
<defs>
<clipPath id="clip0_160_510">
<rect width="25" height="25" fill="white" transform="translate(0.722046 0.166061)"/>
</clipPath>
</defs>
</svg>
